#!OML:ASF F:\VICON\USERDATA\INSTALL\Justin_Nancy\Justin_Nancy.ASF
:FULLY-SPECIFIED
:DEGREES
347
root -1.03549 17.4031 8.6976 217.083 -81.7102 -216.527
lowerback 8.49304 -1.59349 -4.97392
upperback -0.0674497 -2.58099 0.977433
thorax -4.57294 -1.15893 4.13208
lowerneck -15.2614 -2.88262 -9.51647
upperneck 24.8252 -3.32251 5.00451
head 10.7565 -1.98662 2.92516
rclavicle -1.2275e-014 1.19271e-014
rhumerus -38.2523 -16.7329 -76.8374
rradius 30.9261
rwrist 8.79152
rhand -15.2829 11.3387
rfingers 7.12502
rthumb 10.8919 -18.3588
lclavicle -1.2275e-014 1.19271e-014
lhumerus -25.3833 8.53389 85.6208
lradius 29.8988
lwrist -10.9806
lhand -13.4644 23.8705
lfingers 7.12502
lthumb 12.6455 53.4677
rfemur -32.4034 -1.61897 17.1265
rtibia 68.6672
rfoot -5.61622 0.562141
rtoes 15.4527
lfemur -6.79288 0.933867 -28.5208
ltibia 24.2248
lfoot -15.1794 -8.41137
ltoes 14.8902
348
root -1.1794 17.3952 8.69999 219.217 -81.381 -218.725
lowerback 8.30359 -1.51017 -5.56665
upperback 0.0577116 -2.51955 0.898747
thorax -4.32108 -1.12808 4.36544
lowerneck -15.5061 -3.03816 -9.64087
upperneck 24.9409 -3.51738 5.1169
head 10.869 -2.07156 2.96009
rclavicle 4.08006e-014 -2.14687e-014
rhumerus -37.9688 -15.5587 -77.1054
rradius 31.1882
rwrist 7.6945
rhand -15.029 11.5476
rfingers 7.12502
rthumb 11.1368 -18.1369
lclavicle 4.08006e-014 -2.14687e-014
lhumerus -25.0782 8.49865 85.8216
lradius 30.0095
lwrist -11.3541
lhand -13.0674 23.4174
lfingers 7.12502
lthumb 13.0282 52.9905
rfemur -32.8344 -1.53683 16.5687
rtibia 67.0251
rfoot -6.2944 0.576979
rtoes 16.372
lfemur -6.05425 1.22684 -29.1125
ltibia 24.007
lfoot -15.9056 -7.67867
ltoes 12.4129
349
root -1.29984 17.3846 8.70121 218.812 -81.6628 -218.16
lowerback 8.26497 -1.5594 -5.44603
upperback 0.0804458 -2.56517 1.02044
thorax -4.26974 -1.15439 4.42766
lowerneck -15.6945 -3.15486 -9.74717
upperneck 24.9162 -3.64226 5.17658
head 10.9117 -2.12525 2.98085
rclavicle -3.75703e-014 1.19271e-014
rhumerus -37.7254 -16.1226 -77.1279
rradius 31.3235
rwrist 7.66336
rhand -13.7132 11.8423
rfingers 7.12502
rthumb 12.4057 -17.7696
lclavicle -3.75703e-014 1.19271e-014
lhumerus -24.7377 8.38044 86.0386
lradius 30.1165
lwrist -11.4316
lhand -13.1514 23.2452
lfingers 7.12502
lthumb 12.9472 52.8235
rfemur -33.4197 -1.72489 16.9489
rtibia 65.0587
rfoot -6.74342 0.342772
rtoes 14.6172
lfemur -5.73743 1.24967 -28.8746
ltibia 23.8865
lfoot -16.373 -7.43249
ltoes 11.2776
350
root -1.42937 17.3645 8.71233 221.333 -81.2034 -220.88
lowerback 8.478 -1.52254 -6.1294
upperback 0.158368 -2.60033 0.914753
thorax -4.27981 -1.16103 4.71351
lowerneck -15.6198 -3.12187 -9.85513
upperneck 24.614 -3.56434 5.23235
head 10.7816 -2.08412 3.02729
rclavicle 1.88845e-015 1.11319e-014
rhumerus -37.4376 -15.7807 -77.2812
rradius 31.4498
rwrist 6.89056
rhand -13.1167 11.7243
rfingers 7.12502
rthumb 12.9807 -17.8518
lclavicle 1.88845e-015 1.11319e-014
lhumerus -24.6446 7.63614 86.4158
lradius 30.6013
lwrist -10.4534
lhand -13.1987 23.2356
lfingers 7.12502
lthumb 12.9016 52.8168
rfemur -33.6556 -2.00554 16.3257
rtibia 62.979
rfoot -7.21608 0.466145
rtoes 16.6469
lfemur -5.07999 1.32301 -29.6292
ltibia 23.955
lfoot -16.7257 -7.7554
ltoes 11.6101
351
root -1.55264 17.3456 8.70811 220.793 -81.861 -220.495
lowerback 8.80165 -1.62498 -5.75289
upperback 0.218496 -2.71396 1.03537
thorax -4.39508 -1.22174 4.65336
lowerneck -15.5575 -3.1494 -9.9205
upperneck 24.4405 -3.63674 5.44656
head 10.7164 -2.09302 3.10459
rclavicle 3.06128e-014 3.97569e-015
rhumerus -37.3779 -15.6856 -77.49
rradius 31.6751
rwrist 6.65394
rhand -13.6665 11.6324
rfingers 7.12502
rthumb 12.4506 -17.9768
lclavicle 3.06128e-014 3.97569e-015
lhumerus -24.4358 7.21366 86.6312
lradius 30.7941
lwrist -10.1414
lhand -13.4621 23.5793
lfingers 7.12502
lthumb 12.6478 53.1764
rfemur -33.5626 -2.76149 17.1739
rtibia 60.4424
rfoot -7.66653 -0.178018
rtoes 16.6035
lfemur -4.57855 1.4298 -29.0802
ltibia 24.2354
lfoot -16.9983 -8.31174
ltoes 12.0749
352
root -1.67932 17.3271 8.71028 222.166 -82.4785 -221.009
lowerback 8.04137 -1.80968 -5.28653
upperback 0.0174232 -2.86979 1.04026
thorax -4.18146 -1.30957 4.38206
lowerneck -15.5926 -3.21729 -9.54645
upperneck 24.3767 -3.81156 5.3945
head 10.7049 -2.14097 2.99663
rclavicle 5.46658e-016 2.38542e-015
rhumerus -37.3071 -15.862 -77.8371
rradius 31.715
rwrist 7.00991
rhand -14.8727 11.674
rfingers 7.12502
rthumb 11.2875 -18.0023
lclavicle 5.46658e-016 2.38542e-015
lhumerus -24.1201 7.43968 86.5206
lradius 30.6827
lwrist -10.6747
lhand -14.1325 23.9324
lfingers 7.12502
lthumb 12.0013 53.5683
rfemur -34.5772 -3.56863 17.9706
rtibia 57.7521
rfoot -7.79399 -1.09057
rtoes 11.9794
lfemur -5.15902 0.584186 -28.9078
ltibia 24.3827
lfoot -17.0238 -8.11684
ltoes 12.8352
353
root -1.81044 17.3254 8.71119 223.314 -82.4045 -221.896
lowerback 7.86515 -1.82734 -5.54803
upperback -0.0766521 -2.90652 1.08071
thorax -4.16219 -1.32 4.56989
lowerneck -15.6322 -3.20748 -9.38125
upperneck 24.3902 -3.79529 5.23244
head 10.7094 -2.13681 2.91181
rclavicle -1.21756e-014 -5.56597e-015
rhumerus -37.2194 -15.8573 -77.9131
rradius 31.6944
rwrist 7.51258
rhand -15.8244 11.5049
rfingers 7.12502
rthumb 10.3696 -18.2194
lclavicle -1.21756e-014 -5.56597e-015
lhumerus -23.8389 9.08197 86.4074
lradius 30.3554
lwrist -12.3186
lhand -13.8918 23.5829
lfingers 7.12502
lthumb 12.2335 53.2051
rfemur -34.8285 -3.21088 17.8917
rtibia 54.8858
rfoot -7.71228 -1.65353
rtoes 11.1886
lfemur -5.06873 1.30547 -29.0534
ltibia 24.5597
lfoot -17.2742 -9.11417
ltoes 13.7379
354
root -1.93908 17.3349 8.71563 223.578 -82.1035 -222.11
lowerback 7.99503 -1.72415 -5.75987
upperback -0.162975 -2.79913 1.05674
thorax -4.33 -1.25407 4.66214
lowerneck -15.5437 -3.24689 -9.4401
upperneck 24.3821 -3.81672 5.12356
head 10.6911 -2.16665 2.8793
rclavicle 4.85532e-014 -1.27222e-014
rhumerus -37.1756 -15.513 -77.9547
rradius 31.7868
rwrist 6.94874
rhand -15.5367 11.4524
rfingers 7.12502
rthumb 10.6471 -18.2579
lclavicle 4.85532e-014 -1.27222e-014
lhumerus -23.6234 10.4344 86.4558
lradius 30.1318
lwrist -13.7219
lhand -12.6501 22.4768
lfingers 7.12502
lthumb 13.4305 52.0238
rfemur -34.7659 -2.31964 17.5251
rtibia 51.8838
rfoot -7.63673 -2.08702
rtoes 13.1381
lfemur -4.63414 2.31775 -29.189
ltibia 24.5408
lfoot -17.4859 -10.1356
ltoes 14.889
355
root -2.06904 17.3313 8.7127 223.028 -82.1623 -221.354
lowerback 7.92001 -1.65483 -5.57644
upperback -0.216712 -2.68914 0.980037
thorax -4.36901 -1.2014 4.46481
lowerneck -15.5985 -3.32943 -9.15404
upperneck 24.4236 -3.98107 5.02163
head 10.7217 -2.22685 2.77061
rclavicle 2.48481e-016 -1.74931e-014
rhumerus -36.9509 -15.1322 -78.1697
rradius 31.8255
rwrist 5.99633
rhand -14.4814 11.4958
rfingers 7.12502
rthumb 11.6649 -18.1595
lclavicle 2.48481e-016 -1.74931e-014
lhumerus -23.6252 8.87192 86.6795
lradius 30.6565
lwrist -12.6901
lhand -13.341 23.4724
lfingers 7.12502
lthumb 12.7645 53.0622
rfemur -34.8245 -1.83228 17.6814
rtibia 48.876
rfoot -7.52313 -2.73495
rtoes 12.1577
lfemur -4.17557 3.19368 -28.9805
ltibia 24.075
lfoot -17.5914 -10.7767
ltoes 14.6571
356
root -2.20675 17.3366 8.70042 222.198 -83.0672 -220.292
lowerback 7.65224 -1.8795 -4.97185
upperback -0.191543 -2.9086 1.17312
thorax -4.18488 -1.32831 4.33523
lowerneck -15.6674 -3.34357 -9.08902
upperneck 24.344 -4.0327 5.13105
head 10.7102 -2.22711 2.79095
rclavicle 9.93923e-017 -7.95139e-015
rhumerus -36.5788 -14.9733 -78.3077
rradius 31.678
rwrist 6.0933
rhand -13.9708 11.5436
rfingers 7.12502
rthumb 12.1573 -18.0831
lclavicle 9.93923e-017 -7.95139e-015
lhumerus -23.6702 7.11849 87.0262
lradius 31.3179
lwrist -10.5932
lhand -13.5617 23.5297
lfingers 7.12502
lthumb 12.5517 53.1327
rfemur -34.6891 -2.33086 18.4971
rtibia 45.7649
rfoot -7.22389 -2.71996
rtoes 13.3265
lfemur -3.56804 1.51309 -28.4203
ltibia 23.5258
lfoot -17.7728 -9.14338
ltoes 12.2027
357
root -2.34633 17.3168 8.70658 225.731 -82.3878 -223.929
lowerback 7.55892 -1.81217 -6.01163
upperback -0.0322365 -2.90691 1.1104
thorax -3.91996 -1.32057 4.84617
lowerneck -15.795 -3.35724 -9.26616
upperneck 24.2133 -3.98759 5.17831
head 10.6889 -2.20952 2.84226
rclavicle -1.94312e-014 -1.19271e-014
rhumerus -36.2363 -14.8694 -78.3631
rradius 31.6248
rwrist 6.40364
rhand -14.3265 11.3604
rfingers 7.12502
rthumb 11.8142 -18.2864
lclavicle -1.94312e-014 -1.19271e-014
lhumerus -23.4946 6.42596 87.7167
lradius 31.7805
lwrist -7.78278
lhand -17.3409 26.6949
lfingers 7.12502
lthumb 8.90634 56.487
rfemur -34.4717 -3.3877 17.7875
rtibia 42.6561
rfoot -6.58264 -1.44403
rtoes 16.3945
lfemur -2.56678 0.668963 -29.5774
ltibia 22.8975
lfoot -17.9771 -7.59908
ltoes 10.7214
358
root -2.48837 17.2984 8.69756 226.169 -82.2384 -224.268
lowerback 7.19841 -1.83051 -6.72672
upperback 0.155443 -2.95388 1.39059
thorax -3.46567 -1.35275 5.52522
lowerneck -16.0518 -3.37609 -9.57696
upperneck 24.052 -3.89307 5.22868
head 10.6809 -2.17673 2.92308
rclavicle 1.39149e-015 1.27222e-014
rhumerus -35.6295 -14.3454 -78.4011
rradius 31.4763
rwrist 6.45367
rhand -13.91 11.6393
rfingers 7.12502
rthumb 12.2158 -17.984
lclavicle 1.39149e-015 1.27222e-014
lhumerus -23.032 7.75871 87.768
lradius 31.6341
lwrist -9.26074
lhand -16.1618 25.9119
lfingers 7.12502
lthumb 10.044 55.6522
rfemur -34.2622 -3.54468 17.8364
rtibia 39.4817
rfoot -5.85897 -1.45066
rtoes 16.6263
lfemur -1.68212 1.30012 -29.7581
ltibia 21.9512
lfoot -17.8755 -7.55058
ltoes 9.85619
359
root -2.62466 17.308 8.67838 225.518 -82.448 -223.452
lowerback 6.96982 -1.87769 -6.83966
upperback 0.233811 -3.00067 1.60542
thorax -3.23145 -1.38542 5.80532
lowerneck -16.1284 -3.36802 -9.77777
upperneck 23.7992 -3.78994 5.21848
head 10.5994 -2.13828 2.96456
rclavicle 1.67973e-014 3.97569e-015
rhumerus -35.1983 -14.3389 -78.4722
rradius 31.3167
rwrist 6.62386
rhand -13.3128 11.8734
rfingers 7.12502
rthumb 12.7917 -17.7147
lclavicle 1.67973e-014 3.97569e-015
lhumerus -22.7239 7.99396 87.8201
lradius 31.6334
lwrist -9.48301
lhand -14.2665 24.7343
lfingers 7.12502
lthumb 11.8721 54.3777
rfemur -33.879 -1.53658 17.7092
rtibia 36.3229
rfoot -5.58059 -3.553
rtoes 16.6847
lfemur -0.798001 1.58954 -29.4559
ltibia 20.87
lfoot -17.401 -7.96411
ltoes 12.371
360
root -2.75801 17.3042 8.69211 227.463 -81.3956 -225.597
lowerback 7.1719 -1.69131 -7.57654
upperback 0.281493 -2.83916 1.26683
thorax -3.30195 -1.29458 5.8611
lowerneck -16.0507 -3.33264 -9.94899
upperneck 23.6496 -3.71119 5.29847
head 10.5284 -2.10512 3.03232
rclavicle 2.38542e-014 2.38542e-014
rhumerus -35.1907 -14.9095 -78.5325
rradius 31.2902
rwrist 7.24204
rhand -13.6447 12.1135
rfingers 7.12502
rthumb 12.4717 -17.4944
lclavicle 2.38542e-014 2.38542e-014
lhumerus -22.5937 8.48466 87.6995
lradius 31.5439
lwrist -9.70368
lhand -15.3953 25.1236
lfingers 7.12502
lthumb 10.7835 54.8268
rfemur -33.2956 0.389773 16.1705
rtibia 33.168
rfoot -5.09349 -4.8933
rtoes 17.5311
lfemur 0.426995 1.39212 -30.7507
ltibia 19.9347
lfoot -17.251 -7.17592
ltoes 13.4357
